<svg id="Camada_1" data-name="Camada 1" xmlns="http://www.w3.org/2000/svg" viewBox="0 0 157.91 23.25"><defs><style>.cls-1{fill:#ef7851;}</style></defs><path d="M11.78,11.86A2.56,2.56,0,0,0,9,9.47H6.54a2.75,2.75,0,0,0-2.76,2.76v6.5a2.82,2.82,0,0,0,2.76,2.85H9c1.53,0,2.77-.68,2.77-2.4h2.39a4.69,4.69,0,0,1-5,4.72H6.39a5,5,0,0,1-5-5.13V12.31A5.16,5.16,0,0,1,6.54,7.15H9a4.92,4.92,0,0,1,5.16,4.71Z" transform="translate(-1.39 -0.65)"/><path class="cls-1" d="M20.82,16.79V19a2.74,2.74,0,0,0,2.95,2.54h2.58a2.08,2.08,0,0,0,2.28-1.72h2.51a5,5,0,0,1-4.75,4H23.55A5,5,0,0,1,18.43,19V12.23a5.1,5.1,0,0,1,5.16-5.08h2.54a5.2,5.2,0,0,1,5.19,5.16v4.48Zm8.11-4.63a2.75,2.75,0,0,0-2.8-2.69h-2.5a2.73,2.73,0,0,0-2.81,2.69v2.35h8.11Z" transform="translate(-1.39 -0.65)"/><path d="M44.52,23.9H39.36a3.94,3.94,0,0,1-3.93-4h2.36a1.74,1.74,0,0,0,1.79,1.72h5a1.69,1.69,0,0,0,1.68-1.76V18.29a1.62,1.62,0,0,0-1.68-1.68H39.81a3.9,3.9,0,0,1-4-4.08V11.22A4,4,0,0,1,40,7.15h3.89A4.17,4.17,0,0,1,48,11.26H45.6a1.79,1.79,0,0,0-1.87-1.79H39.92a1.63,1.63,0,0,0-1.68,1.68v1.42a1.66,1.66,0,0,0,1.68,1.72h4.82a3.81,3.81,0,0,1,3.89,4v1.49A4,4,0,0,1,44.52,23.9Z" transform="translate(-1.39 -0.65)"/><path d="M53,3.41V.65H55.8V3.41Zm.19,20.26V7.45h2.39V23.67Z" transform="translate(-1.39 -0.65)"/><path d="M63.05,7.45V18.92a2.6,2.6,0,0,0,2.69,2.66h2.84a2.52,2.52,0,0,0,2.77-2.47V7.45h2.39V23.67H71.35v-1.2a4,4,0,0,1-3.18,1.43H65.71a5,5,0,0,1-5-5.09V7.45Z" transform="translate(-1.39 -0.65)"/><path d="M86.11,9.47h-2.5A2.56,2.56,0,0,0,80.88,12V23.67H78.49V7.45h2.39v1.2A4,4,0,0,1,84,7.15h2.21a5.69,5.69,0,0,1,3.62,1.91,4.76,4.76,0,0,1,4-1.91h1.94a5,5,0,0,1,5,5V23.67H98.45V12.2a2.57,2.57,0,0,0-2.54-2.73H93.78A2.65,2.65,0,0,0,91,12.12V23.67H88.62V12.16A2.69,2.69,0,0,0,86.11,9.47Z" transform="translate(-1.39 -0.65)"/><rect class="cls-1" x="103.27" y="20.03" width="3" height="3"/><path class="cls-1" d="M113.93,9.43V.65h-2.36v18a4.89,4.89,0,0,0,5,5h1.88V21.44h-1.88a2.73,2.73,0,0,1-2.61-2.87V9.43Z" transform="translate(-1.39 -0.65)"/><rect x="121.77" y="6.8" width="2.4" height="16.22"/><rect x="121.47" width="2.97" height="3.12"/><path class="cls-1" d="M150.67,15a2.44,2.44,0,0,1,2.24-2.64h1.83a2.45,2.45,0,0,1,.89.18,2.65,2.65,0,0,1,1.24,1.11,3.09,3.09,0,0,1,.49,1.5v8.55h1.86V15.23A4.94,4.94,0,0,0,158,11.45a5.74,5.74,0,0,0-2.36-1.23,7.15,7.15,0,0,0-1-.17c-.34,0-.81,0-1.38,0a2.79,2.79,0,0,0-.79.11,19.46,19.46,0,0,1,2.06-2.46,18.6,18.6,0,0,1,4.79-3.46l-1.69-1.66a25.65,25.65,0,0,0-4.22,3.28,25.08,25.08,0,0,0-2.72,3.06V.65H148.3v23h2.37Z" transform="translate(-1.39 -0.65)"/><path class="cls-1" d="M132.68,12.41a2.73,2.73,0,0,1,2.85-2.67h2.91a2.78,2.78,0,0,1,2.74,2.82V23.67h2.37v-11a5.11,5.11,0,0,0-5.11-5.22h-2.5a4.32,4.32,0,0,0-3.26,1.47V7.71h-2.37v16h2.37Z" transform="translate(-1.39 -0.65)"/></svg>